#!OML:ASF F:\VICON\USERDATA\INSTALL\Justin_Nancy\Justin_Nancy.ASF
:FULLY-SPECIFIED
:DEGREES
357
root -4.24602 17.5321 8.24494 -14.3285 80.8216 -19.9434
lowerback 5.69418 2.71612 4.03087
upperback -0.700707 4.00564 1.94917
thorax -3.78196 1.93565 -0.592011
lowerneck -16.5497 -3.59522 -8.94036
upperneck 24.2377 -3.00491 2.91882
head 10.7462 -1.7335 2.14771
rclavicle -1.68967e-014 -1.03368e-014
rhumerus -33.7342 -11.7871 -79.7842
rradius 32.284
rwrist 7.48794
rhand -12.8513 11.572
rfingers 7.12502
rthumb 13.2366 -17.9877
lclavicle -1.68967e-014 -1.03368e-014
lhumerus -46.4572 30.0042 65.6727
lradius 18.5521
lwrist -16.6747
lhand -18.0359 26.1311
lfingers 7.12502
lthumb 8.2357 55.9506
rfemur 1.73276 -0.554113 23.9888
rtibia 37.7512
rfoot 7.53319 5.82085
rtoes 0.141955
lfemur -24.3481 -1.11789 -24.5618
ltibia 26.5082
lfoot -8.33593 -2.02889
ltoes 13.3487
358
root -4.12785 17.5336 8.26783 -7.60187 81.0988 -13.1694
lowerback 5.60506 2.73191 2.88196
upperback -0.670723 3.92321 1.6841
thorax -3.75926 1.91379 -0.215656
lowerneck -16.7801 -3.7155 -9.4486
upperneck 24.1681 -3.14675 3.4064
head 10.793 -1.78712 2.38562
rclavicle -4.1546e-014 -1.11319e-014
rhumerus -33.6828 -11.4615 -79.962
rradius 32.4209
rwrist 6.95554
rhand -12.9766 11.3107
rfingers 7.12502
rthumb 13.1158 -18.2568
lclavicle -4.1546e-014 -1.11319e-014
lhumerus -46.8799 30.5605 65.5905
lradius 18.6917
lwrist -17.1008
lhand -17.4511 25.4517
lfingers 7.12502
lthumb 8.80007 55.2482
rfemur 0.0528977 -0.564951 22.5529
rtibia 40.6939
rfoot 8.64262 6.87328
rtoes 0.467112
lfemur -23.7078 -0.825412 -25.9088
ltibia 26.0879
lfoot -8.1074 -2.38175
ltoes 13.6147
359
root -4.01251 17.5284 8.2855 1.22521 81.2791 -4.33346
lowerback 5.42133 2.67628 1.63088
upperback -0.601384 3.73219 1.26782
thorax -3.63812 1.8389 0.0786985
lowerneck -17.035 -3.74686 -9.50744
upperneck 24.043 -3.20821 3.5887
head 10.8037 -1.79894 2.44852
rclavicle -4.88513e-014 -7.15625e-015
rhumerus -33.5034 -11.4576 -80.0483
rradius 32.4463
rwrist 7.21932
rhand -12.4033 11.831
rfingers 7.12502
rthumb 13.6684 -17.7002
lclavicle -4.88513e-014 -7.15625e-015
lhumerus -46.4536 29.6385 66.7336
lradius 18.8681
lwrist -15.8168
lhand -17.0436 25.4468
lfingers 7.12502
lthumb 9.19326 55.2264
rfemur -1.67341 -0.872113 20.8239
rtibia 43.4701
rfoot 8.84312 8.47924
rtoes -3.2407
lfemur -23.2165 -1.32961 -27.4533
ltibia 25.8957
lfoot -8.01894 -1.91961
ltoes 13.6944
360
root -3.89541 17.5262 8.30534 1.49344 81.4599 -3.84687
lowerback 5.5669 2.44831 1.52598
upperback -0.496362 3.42632 1.34539
thorax -3.62452 1.69045 0.238075
lowerneck -17.0811 -3.61307 -9.19057
upperneck 23.8112 -3.02226 3.24439
head 10.7011 -1.72609 2.29407
rclavicle -1.33186e-014 7.95139e-015
rhumerus -33.3067 -11.2357 -80.169
rradius 32.422
rwrist 7.55462
rhand -11.8169 12.3599
rfingers 7.12502
rthumb 14.2335 -17.1324
lclavicle -1.33186e-014 7.95139e-015
lhumerus -45.9569 28.3962 68.3258
lradius 19.0137
lwrist -14.4666
lhand -16.9471 25.809
lfingers 7.12502
lthumb 9.28638 55.5845
rfemur -2.96968 -1.30183 20.5285
rtibia 46.0126
rfoot 8.27322 9.42781
rtoes -7.22233
lfemur -22.5965 -1.45946 -27.6318
ltibia 25.9422
lfoot -8.04252 -1.8392
ltoes 14.6511
361
root -3.77711 17.5206 8.34148 -3.66853 81.6464 -8.5631
lowerback 5.90173 2.18545 1.94816
upperback -0.263057 3.12848 1.707
thorax -3.57097 1.54153 0.391352
lowerneck -17.2078 -3.38179 -8.92859
upperneck 23.6389 -2.68741 2.946
head 10.6292 -1.58455 2.1878
rclavicle 2.56929e-014 -2.94201e-014
rhumerus -32.9318 -10.877 -80.4162
rradius 32.3787
rwrist 7.24441
rhand -11.7003 12.3729
rfingers 7.12502
rthumb 14.3458 -17.1114
lclavicle 2.56929e-014 -2.94201e-014
lhumerus -45.7506 28.2711 69.1917
lradius 19.1089
lwrist -14.3278
lhand -16.1889 25.4274
lfingers 7.12502
lthumb 10.0179 55.1689
rfemur -3.83418 -1.4608 21.2376
rtibia 48.3678
rfoot 6.98487 9.44906
rtoes -10.2615
lfemur -21.7614 -1.34244 -26.9182
ltibia 26.1645
lfoot -8.15913 -2.16396
ltoes 15.839
362
root -3.6633 17.5163 8.36922 -5.21145 81.796 -9.6937
lowerback 6.27886 2.07728 2.09841
upperback -0.107416 3.0061 1.73414
thorax -3.61621 1.47889 0.334449
lowerneck -16.9935 -3.24981 -8.71248
upperneck 23.1814 -2.57207 2.85419
head 10.4069 -1.52094 2.13163
rclavicle -1.58034e-014 1.51076e-014
rhumerus -32.7503 -10.9142 -80.6206
rradius 32.4313
rwrist 7.06396
rhand -12.0078 12.1891
rfingers 7.12502
rthumb 14.0495 -17.3161
lclavicle -1.58034e-014 1.51076e-014
lhumerus -45.366 27.6327 70.0806
lradius 19.227
lwrist -14.3767
lhand -15.8971 24.7551
lfingers 7.12502
lthumb 10.2995 54.4829
rfemur -4.82531 -1.3769 21.2678
rtibia 50.6645
rfoot 5.79061 8.44148
rtoes -8.23632
lfemur -20.9835 -2.12556 -26.7106
ltibia 26.4225
lfoot -8.28368 -1.40004
ltoes 16.5033
363
root -3.5526 17.5089 8.38633 -2.68459 82.0082 -7.03385
lowerback 6.39428 2.0579 1.90706
upperback -0.0421649 2.95745 1.52562
thorax -3.612 1.45536 0.227695
lowerneck -17.0884 -3.3388 -8.65977
upperneck 23.0854 -2.74055 2.97291
head 10.4007 -1.57965 2.13952
rclavicle 9.24349e-015 3.18055e-015
rhumerus -32.6371 -11.0619 -80.7286
rradius 32.5595
rwrist 7.11968
rhand -12.4358 11.7765
rfingers 7.12502
rthumb 13.637 -17.7568
lclavicle 9.24349e-015 3.18055e-015
lhumerus -44.6874 26.4829 71.2519
lradius 19.3685
lwrist -14.4309
lhand -16.9281 24.4624
lfingers 7.12502
lthumb 9.30471 54.2371
rfemur -6.3048 -1.41301 20.5721
rtibia 53.0131
rfoot 4.69266 7.38354
rtoes -4.25912
lfemur -20.3939 -2.60584 -27.2301
ltibia 26.3742
lfoot -8.34907 -0.854265
ltoes 15.7317
364
root -3.43946 17.5058 8.41443 2.87809 82.1317 -1.36363
lowerback 6.41642 2.08789 1.09127
upperback -0.0371539 2.92423 1.29832
thorax -3.64774 1.44953 0.451179
lowerneck -17.0096 -3.4096 -8.59957
upperneck 23.0759 -2.86091 2.9611
head 10.3888 -1.63097 2.10868
rclavicle 4.32357e-015 -5.56597e-015
rhumerus -32.6907 -10.5008 -81.1138
rradius 32.9192
rwrist 5.44525
rhand -13.74 10.8742
rfingers 7.12502
rthumb 12.3798 -18.7393
lclavicle 4.32357e-015 -5.56597e-015
lhumerus -44.1488 25.327 72.4557
lradius 19.4899
lwrist -14.6297
lhand -17.476 24.5375
lfingers 7.12502
lthumb 8.77601 54.3351
rfemur -7.79581 -1.55964 19.5481
rtibia 55.2505
rfoot 3.34659 6.50942
rtoes -3.07425
lfemur -19.7148 -2.51393 -28.151
ltibia 26.1197
lfoot -8.49443 -1.01222
ltoes 16.0538
365
root -3.3272 17.4992 8.45502 12.3582 82.0849 8.27095
lowerback 6.44289 2.14605 -0.559991
upperback -0.0689206 2.86308 1.01858
thorax -3.7618 1.44482 1.08967
lowerneck -16.6754 -3.37936 -8.19346
upperneck 22.9659 -2.86045 2.57534
head 10.2722 -1.63957 1.90543
rclavicle 9.93923e-015 1.35174e-014
rhumerus -32.843 -10.7558 -81.0346
rradius 33.1069
rwrist 5.1108
rhand -13.9966 10.8003
rfingers 7.12502
rthumb 12.1324 -18.8279
lclavicle 9.93923e-015 1.35174e-014
lhumerus -43.7158 24.1962 73.6068
lradius 19.6886
lwrist -14.6486
lhand -16.5198 24.2627
lfingers 7.12502
lthumb 9.69866 54.0194
rfemur -9.20589 -1.7597 18.0408
rtibia 57.2439
rfoot 1.82716 5.56689
rtoes -4.12981
lfemur -18.9957 -2.59583 -29.5484
ltibia 25.9461
lfoot -8.84373 -1.00516
ltoes 16.2606
